<svg xmlns="http://www.w3.org/2000/svg" xmlns:xlink="http://www.w3.org/1999/xlink" version="1.1" id="Layer_1" x="0px" y="0px" viewBox="0 0 304 182" style="enable-background:new 0 0 304 182;" xml:space="preserve">
<style type="text/css">
    .st0{fill:#252F3E;}
    .st1{fill-rule:evenodd;clip-rule:evenodd;fill:#FF9900;}
</style>
<g>
    <path class="st0" d="M23.19 95.0V-2.17H42.36V33.02Q46.17 29.74 51.29 27.83Q56.41 25.93 61.40 25.93Q74.14 25.93 81.56 35.25Q88.98 44.58 88.98 60.46Q88.98 70.84 85.57 78.98Q82.15 87.12 75.72 91.78Q69.28 96.44 60.88 96.44Q54.84 96.44 49.59 94.34Q44.33 92.24 40.79 88.43L39.08 95.0ZM55.23 40.37Q48.40 40.37 42.36 43.92V78.45Q48.14 82.0 55.23 82.0Q62.59 82.0 66.07 77.01Q69.55 72.02 69.55 61.25Q69.55 50.35 66.13 45.36Q62.72 40.37 55.23 40.37Z"/>
    <path class="st0" d="M159.03 96.97Q143.40 96.97 134.61 87.58Q125.81 78.19 125.81 61.38Q125.81 44.71 134.61 35.32Q143.40 25.93 159.03 25.93Q174.66 25.93 183.45 35.32Q192.25 44.71 192.25 61.38Q192.25 78.19 183.45 87.58Q174.66 96.97 159.03 96.97ZM159.03 82.26Q172.82 82.26 172.82 61.38Q172.82 40.64 159.03 40.64Q145.24 40.64 145.24 61.38Q145.24 82.26 159.03 82.26Z"/>
    <path class="st0" d="M270.97 95.0L269.39 89.09Q265.32 92.77 260.01 94.93Q254.69 97.10 249.70 97.10Q239.98 97.10 234.14 91.59Q228.29 86.07 228.29 76.88Q228.29 70.58 231.44 65.78Q234.60 60.99 240.51 58.23Q246.41 55.47 254.42 55.47Q260.73 55.47 268.34 57.18V50.62Q268.34 44.58 265.85 42.34Q263.35 40.11 256.66 40.11Q245.89 40.11 232.89 44.18V31.44Q237.75 28.95 245.10 27.44Q252.45 25.93 260.07 25.93Q273.60 25.93 279.83 31.38Q286.07 36.83 286.07 48.52V95.0ZM255.08 84.23Q258.36 84.23 261.84 82.79Q265.32 81.34 268.34 78.85V67.42Q262.57 66.51 257.97 66.51Q246.55 66.51 246.55 75.70Q246.55 79.77 248.78 82.0Q251.01 84.23 255.08 84.23Z"/>
    <g>
        <path class="st1" d="M273.5,143.7c-32.9,24.3-80.7,37.2-121.8,37.2c-57.6,0-109.5-21.3-148.7-56.7c-3.1-2.8-0.3-6.6,3.4-4.4    c42.4,24.6,94.7,39.5,148.8,39.5c36.5,0,76.6-7.6,113.5-23.2C274.2,133.6,278.9,139.7,273.5,143.7z"/>
        <path class="st1" d="M287.2,128.1c-4.2-5.4-27.8-2.6-38.5-1.3c-3.2,0.4-3.7-2.4-0.8-4.5c18.8-13.2,49.7-9.4,53.3-5    c3.6,4.5-1,35.4-18.6,50.2c-2.7,2.3-5.3,1.1-4.1-1.9C282.5,155.7,291.4,133.4,287.2,128.1z"/>
    </g>
</g>
</svg>
